<svg version="1.1" id="Layer_1" xmlns="http://www.w3.org/2000/svg" xmlns:xlink="http://www.w3.org/1999/xlink" x="0px" y="0px"
	 width="100%" viewBox="0 0 676 580" enable-background="new 0 0 676 580" xml:space="preserve">
<path fill="#437EE4" opacity="1.000000" stroke="none" 
	d="
M340.962982,359.194275 
	C361.014587,366.431030 378.814178,362.194397 393.750153,348.505768 
	C410.428741,333.219971 426.054077,316.780304 442.045898,300.751160 
	C457.577026,285.183746 473.340607,269.826019 488.344086,253.761612 
	C499.795410,241.500519 514.417053,236.198807 529.890076,232.451950 
	C538.592529,230.344574 547.521973,228.806488 556.437744,228.033173 
	C570.184631,226.840866 575.410522,231.076126 577.797180,244.521011 
	C582.010010,268.253235 582.997681,292.152924 580.872192,316.173553 
	C576.879822,361.293274 561.795715,402.485840 536.088806,439.628082 
	C501.922363,488.993011 456.055481,522.439819 397.846680,537.974670 
	C330.173859,556.035217 266.871063,544.581177 207.704269,508.061371 
	C185.032135,494.067383 164.750458,477.112183 147.314743,456.915314 
	C139.207962,447.524780 139.437180,440.320679 148.244736,431.509064 
	C186.284470,393.451782 224.394501,355.464050 262.628967,317.602539 
	C273.212738,307.121979 282.140198,307.263031 293.029419,317.718292 
	C303.239838,327.521759 312.848297,337.968994 323.307068,347.489838 
	C328.378693,352.106659 334.789948,355.251862 340.962982,359.194275 
z"/>
<path fill="#4F9982" opacity="1.000000" stroke="none" 
	d="
M450.848358,206.174088 
	C460.460754,219.947922 460.095062,222.843552 448.280945,234.404251 
	C426.368866,255.846283 404.562805,277.396545 382.668610,298.856934 
	C379.104614,302.350281 375.430817,305.751831 371.606140,308.955078 
	C362.297394,316.751373 354.916779,317.308075 344.932129,310.146820 
	C339.839478,306.494202 335.568481,301.686584 330.975800,297.348389 
	C323.715363,290.490204 316.960480,283.003052 309.167358,276.821259 
	C290.921326,262.347961 265.609253,261.986145 247.735168,276.870544 
	C233.304947,288.887085 220.098465,302.405090 206.662628,315.576813 
	C182.159134,339.598633 157.890457,363.859955 133.518555,388.016052 
	C124.311813,397.141296 114.851936,395.259888 110.368660,383.239624 
	C99.314636,353.602264 93.263916,323.181091 94.926170,291.313019 
	C97.223145,247.276352 111.766060,207.692459 137.308350,172.070190 
	C165.933044,132.149063 202.637482,101.924934 248.316574,83.563805 
	C296.333130,64.263107 345.590759,61.167698 395.636810,75.413681 
	C401.556915,77.098900 407.494537,78.722763 413.414398,80.408852 
	C425.711151,83.911194 429.997467,91.216171 426.525299,103.356888 
	C420.324310,125.039055 421.626923,146.572342 428.031403,167.857498 
	C431.975677,180.966232 440.197418,191.828934 448.247131,202.679596 
	C449.040710,203.749329 449.838654,204.815857 450.848358,206.174088 
z"/>
<path fill="#EC6E3B" opacity="1.000000" stroke="none" 
	d="
M587.681763,155.535706 
	C575.047546,196.689499 532.197266,216.591599 493.716736,198.340195 
	C471.310791,187.712982 458.700897,168.998184 455.888611,143.882568 
	C451.274872,102.678062 486.087891,69.260674 524.312012,69.778580 
	C565.973694,70.343071 598.405334,111.738373 588.445374,152.219360 
	C588.206787,153.189224 588.021057,154.172104 587.681763,155.535706 
z"/>
</svg>